<svg width="57" height="91" fill="none" xmlns="http://www.w3.org/2000/svg"><path d="M28.5 0A28.532 28.532 0 008.347 8.33 28.406 28.406 0 000 28.437C0 56.874 28.5 91 28.5 91S57 56.875 57 28.437A28.406 28.406 0 0048.653 8.33 28.531 28.531 0 0028.5 0zm0 45.858a17.492 17.492 0 01-12.345-5.102 17.388 17.388 0 010-24.637 17.492 17.492 0 0124.69 0 17.401 17.401 0 015.114 12.319c0 4.62-1.84 9.05-5.114 12.318A17.479 17.479 0 0128.5 45.858zm-11.04-17.42a11.01 11.01 0 013.235-7.794 11.059 11.059 0 017.81-3.229c2.93 0 5.74 1.161 7.812 3.229a11.01 11.01 0 013.235 7.794 11.01 11.01 0 01-3.235 7.793 11.059 11.059 0 01-7.811 3.229c-2.93 0-5.74-1.161-7.811-3.229a11.01 11.01 0 01-3.236-7.794z" fill="url(#paint0_linear_179_50)"/><defs><linearGradient id="paint0_linear_179_50" x1="28.5" y1="0" x2="28.5" y2="91" gradientUnits="userSpaceOnUse"><stop stop-color="#0F0F0F"/><stop offset="1" stop-color="#666"/></linearGradient></defs></svg>