<svg width="156" height="48" fill="none" xmlns="http://www.w3.org/2000/svg"><path d="M.223 34.889h61.333v13.11H.223V34.89z" fill="#fff"/><path d="M11.597 39.942H8.819a.53.53 0 00-.372-.385c-.19-.074-.537-.111-1.041-.111h-.62c-.695 0-1.145.107-1.352.323-.207.206-.31.653-.31 1.34v.67c0 .695.103 1.146.31 1.353.207.207.657.31 1.352.31h.62c.504 0 .851-.032 1.041-.099a.56.56 0 00.372-.397h2.778c0 1.01-.326 1.771-.98 2.284-.644.513-1.566.77-2.765.77H6.6c-1.571-.017-2.654-.319-3.25-.906-.586-.596-.888-1.68-.905-3.253v-.794c.017-1.572.319-2.652.906-3.24.595-.596 1.678-.902 3.249-.918h1.252c1.199 0 2.12.256 2.765.77.653.512.98 1.274.98 2.283zm9.345-.31h-3.137v6.157h-2.678v-6.157h-3.138V37.1h8.953v2.532zM31.17 37.1l-4.254 7.373c-.298.513-.624.86-.98 1.043-.355.182-.892.273-1.612.273H22.54v-2.532h1.512c.199 0 .373-.034.521-.1L21.075 37.1h3.026l2.034 3.612 2.034-3.612h3zm8.785 6.157v2.532H29.488V43.33h.162c.471 0 .806-.041 1.004-.124a.763.763 0 00.41-.41c.074-.19.148-.533.223-1.03l.657-4.667h7.043v6.157h.968zm-3.646 0v-3.625h-2.046l-.36 2.607a5.94 5.94 0 01-.223 1.018h2.629zm13.341 2.532h-2.68v-4.68l-4.054 4.68h-2.319v-8.69h2.678v4.209l3.646-4.208h2.729v8.689zm9.684-8.689v8.689h-2.678v-2.83h-1.774l-1.636 2.83H50.22l1.76-3.128c-1.066-.447-1.6-1.308-1.6-2.582 0-.977.282-1.717.844-2.222.562-.505 1.389-.757 2.48-.757h5.63zm-2.678 3.326v-.794h-3.014c-.388 0-.583.132-.583.397s.195.397.583.397h3.014z" fill="#0F0F0F"/><path d="M24.695 24.279c0 2.532 1.485 4.81-.362 6.165-1.824 1.333-6.862 1.097-10.333 1.097h-2.889c-3.67 0-6.528-.089-8.374-1.4C.912 28.81 0 26.734 0 23.913h7.542c.134.511.456.866.968 1.066.534.178 1.48.267 2.837.267h3.87c1.113 0 1.67-.378 1.67-1.133s-.557-1.132-1.67-1.132H8.945v-6.197h5.94c1.112 0 1.669-.377 1.669-1.132 0-.755-.557-1.133-1.669-1.133h-3.537c-1.358 0-2.303.1-2.837.3-.512.178-.834.522-.968 1.033H0c0-2.82.912-4.886 2.737-6.196 1.846-1.333 4.605-1.433 8.276-1.433h2.97c7.075 0 10.379 2.021 10.379 7.196 0 1.91-.468 3.33-1.402 4.264 1.157.955 1.735 2.487 1.735 4.597z" fill="#fff"/><path d="M39.206 27.677h-9.611l-1.502 3.864H18.74L29.962 8.222h8.944l9.444 23.319h-7.642l-1.502-3.864zm-2.603-6.796L34.4 15.184l-2.202 5.697h4.405z" fill="#fff"/><path d="M68.916 31.54h-7.208V18.983L50.795 31.541h-6.24V8.222h7.208v11.293l9.811-11.293h7.342v23.319z" fill="#fff"/><path d="M93.21 24.745v6.796H67.047V8.222h7.208v16.523H83.4V8.222h7.209v16.523h2.602z" fill="#fff"/><path d="M109.991 24.745v6.796H88.733V8.222h21.191v6.796H95.941v1.632h9.478v6.396h-9.477v1.7h14.049z" fill="#fff"/><path d="M133.694 24.545c0 2.265-.767 3.998-2.302 5.197-1.536 1.2.363 1.799-2.574 1.799h-19.752V8.222h15.284c2.959 0 5.195.589 6.708 1.766 1.535 1.155 2.303 2.865 2.303 5.13 0 2.02-.612 3.542-1.836 4.564 1.446 1.11 2.169 2.731 2.169 4.863zm-17.42-9.527v1.932h8.41c1.045 0 1.568-.322 1.568-.966 0-.644-.523-.966-1.568-.966h-8.41zm8.744 9.727c1.045 0 1.568-.322 1.568-.966 0-.644-.523-.966-1.568-.966h-8.744v1.932h8.744z" fill="#fff"/><path d="M146.856 27.677h-9.611l-1.502 3.864h-7.575l9.444-23.319h8.944L156 31.541h-7.642l-1.502-3.864zm-2.603-6.796l-2.203-5.697-2.202 5.697h4.405zM51.778 0h9.778v4.889h-9.778V0zm31.555 34.889h9.778v4.889h-9.778v-4.89z" fill="#fff"/></svg>