<svg width="224" height="18" fill="none" xmlns="http://www.w3.org/2000/svg"><path d="M0 .435h6.277c.73 0 1.459.057 2.188.17a5.6 5.6 0 011.997.629 3.73 3.73 0 011.427 1.306c.364.565.546 1.315.546 2.25 0 .968-.269 1.775-.808 2.42-.523.629-1.22 1.08-2.092 1.355v.048c.554.08 1.054.242 1.498.484.46.226.848.524 1.165.895.333.355.586.774.76 1.258.175.484.262 1 .262 1.548 0 .904-.19 1.662-.57 2.275a4.565 4.565 0 01-1.475 1.451 6.392 6.392 0 01-2.045.799c-.745.16-1.49.241-2.235.241H0V.435zm3.71 6.847h2.686c.285 0 .563-.032.832-.097.286-.064.54-.169.761-.314.222-.145.396-.339.523-.58.143-.243.214-.533.214-.872 0-.354-.079-.645-.238-.87a1.466 1.466 0 00-.57-.557 2.52 2.52 0 00-.809-.266 4.195 4.195 0 00-.88-.097H3.71v3.653zm0 7.089h3.328c.285 0 .57-.032.856-.097.301-.064.57-.177.808-.338a1.8 1.8 0 00.571-.63c.159-.258.238-.572.238-.943 0-.403-.103-.726-.31-.968a1.758 1.758 0 00-.736-.58 3.786 3.786 0 00-.975-.267 7.118 7.118 0 00-.975-.072H3.709v3.895zM22.596.435h3.71v13.646h6.871v3.483h-10.58V.435zm25.204 0h3.068l7.323 17.13h-4.185l-1.45-3.63h-6.539l-1.403 3.63h-4.09L47.8.434zm1.427 4.984l-2.045 5.323h4.114l-2.069-5.323zm28.702-.532a3.622 3.622 0 00-1.355-1.04c-.523-.242-1.134-.363-1.831-.363a4.65 4.65 0 00-1.95.411 4.728 4.728 0 00-1.546 1.161 5.517 5.517 0 00-1.022 1.742A6.603 6.603 0 0069.868 9c0 .806.12 1.548.357 2.226a5.901 5.901 0 001.023 1.742c.427.484.927.863 1.498 1.137a4.38 4.38 0 001.878.411c.76 0 1.434-.161 2.021-.484a4.05 4.05 0 001.45-1.355l3.091 2.347c-.713 1.016-1.616 1.766-2.71 2.25a8.264 8.264 0 01-3.377.726c-1.315 0-2.528-.21-3.638-.629a8.398 8.398 0 01-2.876-1.79c-.809-.79-1.443-1.742-1.903-2.855-.444-1.113-.666-2.355-.666-3.726s.222-2.613.666-3.726c.46-1.113 1.094-2.056 1.903-2.83A8.216 8.216 0 0171.462.629C72.572.209 73.784 0 75.099 0c.476 0 .967.048 1.475.145.523.08 1.03.218 1.521.411.508.194.991.452 1.45.775.46.322.873.717 1.237 1.185L77.93 4.887zM90.376.435h3.709v7.113l6.539-7.113h4.85l-7.49 7.96 8.132 9.17h-5.183l-6.848-8.13v8.13h-3.71V.434zm30.704 0h2.282v7.113h8.727V.435h2.282v17.13h-2.282v-7.84h-8.727v7.84h-2.282V.434zM153.049 18c-1.284 0-2.465-.226-3.543-.677a8.53 8.53 0 01-2.782-1.912 9.07 9.07 0 01-1.807-2.854c-.428-1.097-.642-2.283-.642-3.557s.214-2.46.642-3.556a9.07 9.07 0 011.807-2.855 8.228 8.228 0 012.782-1.887C150.584.234 151.765 0 153.049 0c1.284 0 2.465.234 3.543.702a7.976 7.976 0 012.758 1.887 8.536 8.536 0 011.807 2.855c.444 1.096.666 2.282.666 3.556s-.222 2.46-.666 3.556a8.537 8.537 0 01-1.807 2.855 8.264 8.264 0 01-2.758 1.912c-1.078.451-2.259.677-3.543.677zm0-2.177c.967 0 1.839-.178 2.615-.533a6.359 6.359 0 001.998-1.475 6.495 6.495 0 001.284-2.154A7.819 7.819 0 00159.398 9c0-.935-.151-1.815-.452-2.637a6.447 6.447 0 00-1.284-2.178 6.056 6.056 0 00-1.998-1.451c-.776-.371-1.648-.557-2.615-.557-.967 0-1.839.186-2.616.557a6.062 6.062 0 00-1.997 1.451 6.447 6.447 0 00-1.284 2.178A7.614 7.614 0 00146.7 9c0 .935.151 1.823.452 2.661.301.823.729 1.54 1.284 2.154a6.366 6.366 0 001.997 1.475c.777.355 1.649.533 2.616.533zM171.723.435h5.92c1.078 0 1.966.154 2.663.46.698.29 1.244.67 1.641 1.137.412.452.697.968.856 1.549a6.09 6.09 0 01.237 1.645c0 .548-.095 1.08-.285 1.597-.19.5-.467.96-.832 1.379-.349.403-.785.75-1.308 1.04a4.524 4.524 0 01-1.712.508l4.779 7.814h-2.853l-4.28-7.548h-2.544v7.548h-2.282V.435zm2.282 7.549h2.996a8.7 8.7 0 001.308-.097 3.57 3.57 0 001.165-.411 2.16 2.16 0 00.832-.823c.206-.37.309-.847.309-1.427 0-.58-.103-1.049-.309-1.403a2.117 2.117 0 00-.832-.847 3.215 3.215 0 00-1.165-.387 7.048 7.048 0 00-1.308-.121h-2.996v5.516zm19.37 6a3.87 3.87 0 001.57 1.403 4.85 4.85 0 001.997.436c.38 0 .769-.057 1.165-.17a3.574 3.574 0 001.07-.556c.333-.242.602-.54.808-.895.206-.355.309-.767.309-1.234 0-.662-.206-1.162-.618-1.5-.412-.355-.927-.645-1.545-.871a20.756 20.756 0 00-1.998-.678A8.685 8.685 0 01194.136 9a5.035 5.035 0 01-1.522-1.548c-.412-.662-.618-1.549-.618-2.662 0-.5.103-1.032.309-1.596a4.602 4.602 0 011.023-1.549c.459-.468 1.046-.855 1.759-1.161.729-.323 1.601-.484 2.616-.484a8.94 8.94 0 012.639.387c.84.258 1.577.782 2.211 1.573l-1.854 1.717a3.102 3.102 0 00-1.213-1.088c-.523-.274-1.118-.412-1.783-.412-.634 0-1.165.09-1.593.267a2.645 2.645 0 00-.999.653 2.34 2.34 0 00-.547.847 2.879 2.879 0 00-.143.846c0 .726.207 1.283.619 1.67.412.387.919.701 1.521.943.619.242 1.284.46 1.998.653a7.907 7.907 0 011.997.823 4.48 4.48 0 011.546 1.403c.412.58.618 1.387.618 2.42 0 .822-.159 1.564-.476 2.225a4.8 4.8 0 01-1.236 1.67 5.515 5.515 0 01-1.855 1.04 7.059 7.059 0 01-2.283.363 8.2 8.2 0 01-3.067-.58c-.967-.388-1.736-.985-2.306-1.791l1.878-1.645zM212.706.435h10.866v2.178h-8.584v5.105h7.99v2.177h-7.99v5.492H224v2.177h-11.294V.435z" fill="#fff"/></svg>