<?xml version="1.0" encoding="utf-8"?><svg viewBox="0 0 50 34" xmlns="http://www.w3.org/2000/svg" xmlns:xlink="http://www.w3.org/1999/xlink"><style>:root>svg{display:none}:root>svg:target{display:block}</style><svg fill="none" viewBox="0 0 50 6" id="icon-arrow-more" xmlns="http://www.w3.org/2000/svg"><path d="M50 3L45 .113v5.774L50 3zM0 3.5h45.5v-1H0v1z" fill="#fff"/></svg><svg fill="none" viewBox="0 0 31 6" id="icon-arrow-more-short" xmlns="http://www.w3.org/2000/svg"><path d="M31 3L26 .113v5.774L31 3zM0 3.5h26.5v-1H0v1z" fill="currentColor"/></svg><svg fill="none" viewBox="0 0 7 34" id="icon-dots-delimiter" xmlns="http://www.w3.org/2000/svg"><path d="M0 30.79c0-1.022.26-1.8.778-2.335.565-.535 1.461-.803 2.687-.803 1.225 0 2.12.268 2.687.803.565.535.848 1.313.848 2.335 0 1.07-.283 1.872-.848 2.407-.566.535-1.462.803-2.687.803-1.226 0-2.122-.267-2.687-.803C.259 32.662 0 31.86 0 30.79zM0 3.21C0 2.14.26 1.338.778.803 1.343.268 2.239 0 3.465 0c1.225 0 2.12.268 2.687.803C6.717 1.338 7 2.14 7 3.21s-.283 1.873-.848 2.408c-.566.486-1.462.73-2.687.73-1.226 0-2.122-.244-2.687-.73C.259 5.083 0 4.28 0 3.21z" fill="#fff"/></svg><svg fill="none" viewBox="0 0 22 22" id="icon-tg" xmlns="http://www.w3.org/2000/svg"><path fill-rule="evenodd" clip-rule="evenodd" d="M11 0C4.925 0 0 4.925 0 11s4.925 11 11 11 11-4.925 11-11S17.075 0 11 0zm5.099 7.48c-.166 1.74-.882 5.961-1.246 7.91-.155.824-.458 1.1-.752 1.127-.639.06-1.124-.422-1.743-.828-.968-.634-1.515-1.03-2.455-1.649-1.086-.715-.382-1.109.237-1.751.162-.169 2.977-2.729 3.031-2.96.007-.03.014-.138-.05-.196-.065-.057-.16-.037-.229-.021-.097.021-1.644 1.044-4.64 3.066-.439.302-.836.448-1.193.441-.392-.008-1.148-.222-1.71-.405-.688-.224-1.236-.342-1.188-.722.025-.199.297-.4.818-.608a523.498 523.498 0 016.415-2.763c3.055-1.27 3.69-1.492 4.104-1.5.518-.008.643.42.6.86z" fill="#fff"/></svg><svg fill="none" viewBox="0 0 22 22" id="icon-whatsapp" xmlns="http://www.w3.org/2000/svg"><path d="M11.003 0h-.006C4.932 0 0 4.934 0 11c0 2.406.775 4.636 2.094 6.447l-1.37 4.087 4.227-1.352A10.905 10.905 0 0011.003 22C17.068 22 22 17.065 22 11S17.068 0 11.003 0zm6.4 15.533c-.265.75-1.318 1.371-2.158 1.553-.575.122-1.326.22-3.853-.828-3.233-1.34-5.314-4.624-5.477-4.837-.155-.213-1.306-1.74-1.306-3.318 0-1.579.802-2.347 1.125-2.677.265-.271.704-.395 1.125-.395.136 0 .258.007.368.013.323.013.485.033.699.543.265.639.911 2.218.988 2.38.079.162.157.382.047.595-.103.22-.194.318-.356.505-.162.187-.316.33-.479.53-.148.175-.316.362-.129.685.187.316.833 1.371 1.785 2.218 1.228 1.093 2.223 1.443 2.58 1.591.265.11.58.084.775-.122.246-.266.55-.706.86-1.139.22-.31.497-.35.788-.24.297.104 1.869.88 2.192 1.042.323.162.536.239.615.375.077.136.077.776-.189 1.526z" fill="#fff"/></svg></svg>